{
    "asset" : {
        "generator" : "Khronos glTF Blender I/O v1.6.16",
        "version" : "2.0"
    },
    "scene" : 0,
    "scenes" : [
        {
            "name" : "Scene",
            "nodes" : [
                0,
                1,
                2,
                3,
                4,
                5
            ]
        }
    ],
    "nodes" : [
        {
            "name" : "Light",
            "rotation" : [
                0.16907575726509094,
                0.7558803558349609,
                -0.27217137813568115,
                0.570947527885437
            ],
            "scale" : [
                0.0009351774351671338,
                0.0009351772605441511,
                0.0009351777262054384
            ],
            "translation" : [
                0.08760939538478851,
                0.20899388194084167,
                0.03450489044189453
            ]
        },
        {
            "name" : "Camera",
            "rotation" : [
                0.4466135501861572,
                -0.007373395375907421,
                0.005562601611018181,
                0.8946793079376221
            ],
            "translation" : [
                1.110687255859375,
                193.30020141601562,
                293.3939208984375
            ]
        },
        {
            "mesh" : 0,
            "name" : "Assy",
            "rotation" : [
                0.7071068286895752,
                0,
                0,
                0.7071067094802856
            ],
            "scale" : [
                0.0010565679986029863,
                0.0010565679986029863,
                0.0010565679986029863
            ],
            "translation" : [
                0.00014706701040267944,
                0.05794764682650566,
                -0.0021539833396673203
            ]
        },
        {
            "mesh" : 1,
            "name" : "glass",
            "scale" : [
                0.0010565679986029863,
                0.0010565679986029863,
                0.0010565679986029863
            ],
            "translation" : [
                0.00014706701040267944,
                -0.0012201182544231415,
                -0.001097431406378746
            ]
        },
        {
            "mesh" : 2,
            "name" : "\u7acb\u65b9\u4f53",
            "scale" : [
                0.000935177318751812,
                0.000935177318751812,
                0.000935177318751812
            ],
            "translation" : [
                0.00014706701040267944,
                0.0545487105846405,
                -0.012093305587768555
            ]
        },
        {
            "mesh" : 3,
            "name" : "\u7acb\u65b9\u4f53.001",
            "scale" : [
                0.000935177318751812,
                0.000935177318751812,
                0.000935177318751812
            ],
            "translation" : [
                0.00014706701040267944,
                0.0545487105846405,
                -0.012093305587768555
            ]
        }
    ],
    "materials" : [
        {
            "doubleSided" : true,
            "name" : "AssyMaterial0",
            "pbrMetallicRoughness" : {
                "baseColorFactor" : [
                    0.5069829821586609,
                    0.5315639972686768,
                    0.550000011920929,
                    1
                ],
                "metallicFactor" : 0,
                "roughnessFactor" : 0.850928783416748
            }
        },
        {
            "doubleSided" : true,
            "name" : "AssyMaterial1",
            "pbrMetallicRoughness" : {
                "metallicFactor" : 0,
                "roughnessFactor" : 0.850928783416748
            }
        },
        {
            "doubleSided" : true,
            "name" : "AssyMaterial2",
            "pbrMetallicRoughness" : {
                "baseColorFactor" : [
                    0.20000000298023224,
                    0.20000000298023224,
                    0.20000000298023224,
                    1
                ],
                "metallicFactor" : 0,
                "roughnessFactor" : 0.850928783416748
            }
        },
        {
            "doubleSided" : true,
            "name" : "AssyMaterial3",
            "pbrMetallicRoughness" : {
                "baseColorFactor" : [
                    0.800000011920929,
                    0.7603309750556946,
                    0,
                    1
                ],
                "metallicFactor" : 0,
                "roughnessFactor" : 0.850928783416748
            }
        },
        {
            "doubleSided" : true,
            "name" : "AssyMaterial4",
            "pbrMetallicRoughness" : {
                "baseColorFactor" : [
                    0.3499999940395355,
                    0.2573530077934265,
                    0.1132349967956543,
                    1
                ],
                "metallicFactor" : 0,
                "roughnessFactor" : 0.850928783416748
            }
        },
        {
            "doubleSided" : true,
            "name" : "\u30de\u30c6\u30ea\u30a2\u30eb",
            "pbrMetallicRoughness" : {}
        }
    ],
    "meshes" : [
        {
            "name" : "Assy",
            "primitives" : [
                {
                    "attributes" : {
                        "POSITION" : 0,
                        "NORMAL" : 1
                    },
                    "indices" : 2,
                    "material" : 0
                },
                {
                    "attributes" : {
                        "POSITION" : 3,
                        "NORMAL" : 4
                    },
                    "indices" : 5,
                    "material" : 1
                },
                {
                    "attributes" : {
                        "POSITION" : 6,
                        "NORMAL" : 7
                    },
                    "indices" : 8,
                    "material" : 2
                },
                {
                    "attributes" : {
                        "POSITION" : 9,
                        "NORMAL" : 10
                    },
                    "indices" : 11,
                    "material" : 3
                },
                {
                    "attributes" : {
                        "POSITION" : 12,
                        "NORMAL" : 13
                    },
                    "indices" : 14,
                    "material" : 4
                }
            ]
        },
        {
            "name" : "glass",
            "primitives" : [
                {
                    "attributes" : {
                        "POSITION" : 15,
                        "NORMAL" : 16
                    },
                    "indices" : 17,
                    "material" : 5
                }
            ]
        },
        {
            "name" : "\u7acb\u65b9\u4f53",
            "primitives" : [
                {
                    "attributes" : {
                        "POSITION" : 18,
                        "NORMAL" : 19
                    },
                    "indices" : 20
                }
            ]
        },
        {
            "name" : "\u7acb\u65b9\u4f53.001",
            "primitives" : [
                {
                    "attributes" : {
                        "POSITION" : 21,
                        "NORMAL" : 22
                    },
                    "indices" : 20
                }
            ]
        }
    ],
    "accessors" : [
        {
            "bufferView" : 0,
            "componentType" : 5126,
            "count" : 24343,
            "max" : [
                27.5,
                21.5,
                2
            ],
            "min" : [
                -26.941883087158203,
                -21.5,
                -13
            ],
            "type" : "VEC3"
        },
        {
            "bufferView" : 1,
            "componentType" : 5126,
            "count" : 24343,
            "type" : "VEC3"
        },
        {
            "bufferView" : 2,
            "componentType" : 5123,
            "count" : 25746,
            "type" : "SCALAR"
        },
        {
            "bufferView" : 3,
            "componentType" : 5126,
            "count" : 5245,
            "max" : [
                33.5,
                33.5,
                2
            ],
            "min" : [
                -33.2557487487793,
                -33.5,
                -18.5
            ],
            "type" : "VEC3"
        },
        {
            "bufferView" : 4,
            "componentType" : 5126,
            "count" : 5245,
            "type" : "VEC3"
        },
        {
            "bufferView" : 5,
            "componentType" : 5123,
            "count" : 6210,
            "type" : "SCALAR"
        },
        {
            "bufferView" : 6,
            "componentType" : 5126,
            "count" : 146,
            "max" : [
                19.799999237060547,
                6.452608108520508,
                1.311121940612793
            ],
            "min" : [
                -14,
                -6.452608108520508,
                -11.5
            ],
            "type" : "VEC3"
        },
        {
            "bufferView" : 7,
            "componentType" : 5126,
            "count" : 146,
            "type" : "VEC3"
        },
        {
            "bufferView" : 8,
            "componentType" : 5123,
            "count" : 156,
            "type" : "SCALAR"
        },
        {
            "bufferView" : 9,
            "componentType" : 5126,
            "count" : 138,
            "max" : [
                31.5,
                31.27033042907715,
                -14.5
            ],
            "min" : [
                -30.584667205810547,
                -31.27033042907715,
                -62.5
            ],
            "type" : "VEC3"
        },
        {
            "bufferView" : 10,
            "componentType" : 5126,
            "count" : 138,
            "type" : "VEC3"
        },
        {
            "bufferView" : 11,
            "componentType" : 5123,
            "count" : 156,
            "type" : "SCALAR"
        },
        {
            "bufferView" : 12,
            "componentType" : 5126,
            "count" : 136,
            "max" : [
                20.846885681152344,
                20.38977813720703,
                -62.5
            ],
            "min" : [
                -20.846885681152344,
                -21,
                -64.5
            ],
            "type" : "VEC3"
        },
        {
            "bufferView" : 13,
            "componentType" : 5126,
            "count" : 136,
            "type" : "VEC3"
        },
        {
            "bufferView" : 14,
            "componentType" : 5123,
            "count" : 156,
            "type" : "SCALAR"
        },
        {
            "bufferView" : 15,
            "componentType" : 5126,
            "count" : 23247,
            "max" : [
                72.05000305175781,
                76.19999694824219,
                71.74264526367188
            ],
            "min" : [
                -72.05000305175781,
                0,
                -71.74264526367188
            ],
            "type" : "VEC3"
        },
        {
            "bufferView" : 16,
            "componentType" : 5126,
            "count" : 23247,
            "type" : "VEC3"
        },
        {
            "bufferView" : 17,
            "componentType" : 5123,
            "count" : 23508,
            "type" : "SCALAR"
        },
        {
            "bufferView" : 18,
            "componentType" : 5126,
            "count" : 24,
            "max" : [
                1,
                1,
                1
            ],
            "min" : [
                -1,
                -1,
                -1
            ],
            "type" : "VEC3"
        },
        {
            "bufferView" : 19,
            "componentType" : 5126,
            "count" : 24,
            "type" : "VEC3"
        },
        {
            "bufferView" : 20,
            "componentType" : 5123,
            "count" : 36,
            "type" : "SCALAR"
        },
        {
            "bufferView" : 21,
            "componentType" : 5126,
            "count" : 24,
            "max" : [
                1,
                1,
                1
            ],
            "min" : [
                -1,
                -1,
                -1
            ],
            "type" : "VEC3"
        },
        {
            "bufferView" : 22,
            "componentType" : 5126,
            "count" : 24,
            "type" : "VEC3"
        }
    ],
    "bufferViews" : [
        {
            "buffer" : 0,
            "byteLength" : 292116,
            "byteOffset" : 0
        },
        {
            "buffer" : 0,
            "byteLength" : 292116,
            "byteOffset" : 292116
        },
        {
            "buffer" : 0,
            "byteLength" : 51492,
            "byteOffset" : 584232
        },
        {
            "buffer" : 0,
            "byteLength" : 62940,
            "byteOffset" : 635724
        },
        {
            "buffer" : 0,
            "byteLength" : 62940,
            "byteOffset" : 698664
        },
        {
            "buffer" : 0,
            "byteLength" : 12420,
            "byteOffset" : 761604
        },
        {
            "buffer" : 0,
            "byteLength" : 1752,
            "byteOffset" : 774024
        },
        {
            "buffer" : 0,
            "byteLength" : 1752,
            "byteOffset" : 775776
        },
        {
            "buffer" : 0,
            "byteLength" : 312,
            "byteOffset" : 777528
        },
        {
            "buffer" : 0,
            "byteLength" : 1656,
            "byteOffset" : 777840
        },
        {
            "buffer" : 0,
            "byteLength" : 1656,
            "byteOffset" : 779496
        },
        {
            "buffer" : 0,
            "byteLength" : 312,
            "byteOffset" : 781152
        },
        {
            "buffer" : 0,
            "byteLength" : 1632,
            "byteOffset" : 781464
        },
        {
            "buffer" : 0,
            "byteLength" : 1632,
            "byteOffset" : 783096
        },
        {
            "buffer" : 0,
            "byteLength" : 312,
            "byteOffset" : 784728
        },
        {
            "buffer" : 0,
            "byteLength" : 278964,
            "byteOffset" : 785040
        },
        {
            "buffer" : 0,
            "byteLength" : 278964,
            "byteOffset" : 1064004
        },
        {
            "buffer" : 0,
            "byteLength" : 47016,
            "byteOffset" : 1342968
        },
        {
            "buffer" : 0,
            "byteLength" : 288,
            "byteOffset" : 1389984
        },
        {
            "buffer" : 0,
            "byteLength" : 288,
            "byteOffset" : 1390272
        },
        {
            "buffer" : 0,
            "byteLength" : 72,
            "byteOffset" : 1390560
        },
        {
            "buffer" : 0,
            "byteLength" : 288,
            "byteOffset" : 1390632
        },
        {
            "buffer" : 0,
            "byteLength" : 288,
            "byteOffset" : 1390920
        }
    ],
    "buffers" : [
        {
            "byteLength" : 1391208,
            "uri" : "data:application/octet-stream;base64,"
        }
    ]
}
